<?xml version="1.0" encoding="UTF-8"?>
<svg width="128px" height="195px" viewBox="0 0 128 195" version="1.1" xmlns="http://www.w3.org/2000/svg" xmlns:xlink="http://www.w3.org/1999/xlink">
    <title>Logo/Dark bg/image only</title>
    <g id="Logo/Dark-bg/image-only" stroke="none" stroke-width="1" fill="none" fill-rule="evenodd">
        <g id="Lava" transform="translate(81.276, 50.244) rotate(28) translate(-81.276, -50.244)translate(49.8225, 10.4923)" fill="#F5F5F5">
            <path d="M15.7079,66.687478 C25.0412334,40.5837885 29.7079,24.3482949 29.7079,17.980997 C29.7079,8.4300502 23.4398865,0.687478034 15.7079,0.687478034 C7.97591355,0.687478034 1.70790004,8.4300502 1.70790004,17.980997 C1.70790004,24.3482949 6.37456671,40.5837885 15.7079,66.687478 Z" id="Oval" transform="translate(15.7079, 33.6875) rotate(3) translate(-15.7079, -33.6875)"></path>
            <path d="M33.6873751,75.833024 C41.3540417,53.9460097 45.1873751,40.3331262 45.1873751,34.9943736 C45.1873751,26.9862448 40.0386497,20.4943736 33.6873751,20.4943736 C27.3361004,20.4943736 22.1873751,26.9862448 22.1873751,34.9943736 C22.1873751,40.3331262 26.0207084,53.9460097 33.6873751,75.833024 Z" id="Oval" transform="translate(33.6874, 48.1637) rotate(41) translate(-33.6874, -48.1637)"></path>
            <path d="M39.5166063,88.1258996 C45.5166063,70.7234399 48.5166063,59.8997774 48.5166063,55.6549122 C48.5166063,49.2876143 44.4871691,44.1258996 39.5166063,44.1258996 C34.5460436,44.1258996 30.5166063,49.2876143 30.5166063,55.6549122 C30.5166063,59.8997774 33.5166063,70.7234399 39.5166063,88.1258996 Z" id="Oval" transform="translate(39.5166, 66.1259) rotate(78) translate(-39.5166, -66.1259)"></path>
        </g>
        <path d="M64.2801532,0 C47.9592766,4.27618613 34.87333,14.2697175 25.0223136,29.9805942 C10.245789,53.5469091 17.7804811,76.578744 16.6567125,80.1362815 C15.5329439,83.693819 0,104.656108 0,110.891713 C0,115.048783 3.44716127,117.513674 10.3414838,118.286386 C9.41331148,123.794259 8.94922532,127.682783 8.94922532,129.951958 C8.94922532,132.221133 10.7008118,133.746774 14.2039846,134.528881 C11.5083893,136.804712 10.6246778,138.647711 11.5528501,140.057879 C12.9451086,142.173132 18.6515497,146.433115 18.6515497,147.213026 C18.6515497,147.538133 18.7909785,153.488599 20.4230494,157.966241 C21.4011418,160.649671 22.0601567,163.484423 27.2677368,164.437404 C32.475317,165.390384 52.7382607,151.938719 60.7658499,157.966241 C66.117576,161.98459 68.738385,174.494079 68.628277,195.494709 C99.4154034,159.251977 111.644205,132.661248 105.314682,115.722521 C97.0943537,93.7237224 28.2016927,97.7473543 44.253661,33.3308845 C46.9622147,22.4614716 53.6377121,11.3511768 64.2801532,0 Z" id="Testa" fill="#F5F5F5"></path>
    </g>
</svg>